<?xml version="1.0" encoding="utf-8"?>
<!-- Generator: Adobe Illustrator 23.0.1, SVG Export Plug-In . SVG Version: 6.00 Build 0)  -->
<svg version="1.1" xmlns="http://www.w3.org/2000/svg" xmlns:xlink="http://www.w3.org/1999/xlink" x="0px" y="0px"
	 viewBox="0 0 800 800" style="enable-background:new 0 0 800 800;" xml:space="preserve">
<style type="text/css">
	.st0{fill:#FFFFFF;}
	.st1{fill:url(#SVGID_1_);}
	.st2{fill:#FFFFFF;}
	.st3{fill:url(#SVGID_2_);}
	.st4{fill:#FFFFFF;}
	.st5{fill:url(#SVGID_3_);}
	.st6{fill:#FFFFFF;}
	.st7{fill:url(#SVGID_4_);}
	.st8{fill:#FFFFFF;}
	.st9{fill:url(#SVGID_5_);}
	.st10{fill:#FFFFFF;}
	.st11{fill:url(#SVGID_6_);}
	.st12{fill:url(#SVGID_7_);}
	.st13{fill:url(#SVGID_8_);}
	.st14{fill:url(#SVGID_9_);}
	.st15{fill:url(#SVGID_10_);}
	.st16{fill:url(#SVGID_11_);}
	.st17{fill:url(#SVGID_12_);}
</style>
<g id="Background">
</g>
<g id="Objects">
	<g>
		<path class="st0" d="M371,219.6c107.2,57,224.1,119.2,292.6,186.2c4.4-26.9,7.3-55,9-82.7C606.4,272.7,512.4,222.7,430.2,179
			c-48.8-25.9-90.1-48.2-123.5-68.1c-31.7,12.4-65.7,17.1-96.3,16.7c4.3,3,9,6.2,14.2,9.7C262.6,162,315.3,190,371,219.6z"/>
		<linearGradient id="SVGID_1_" gradientUnits="userSpaceOnUse" x1="230.7327" y1="255.3101" x2="666.0079" y2="255.3101">
			<stop  offset="0" style="stop-color:#FFFFFF;stop-opacity:0.4"/>
			<stop  offset="1" style="stop-color:#FFFFFF;stop-opacity:0"/>
		</linearGradient>
		<path class="st1" d="M659.1,392.7C588.9,328.2,475,267.6,374,213.9c-54.3-28.9-105.8-56.2-143.3-80.4c26.5-1.6,52.3-6.9,75.4-15.6
			c34.3,20.4,76.8,43.2,121.1,66.7c81.2,43.2,173,92,238.8,141.5C664.4,349.8,662.1,372.1,659.1,392.7z"/>
		<path class="st2" d="M189.2,419.9c-17.4-9.2-33.8-18-49.3-26.4c4.2,29,10.1,57,18.3,82C286,543.8,420.1,619.1,465.8,701
			c14.9-12.2,31.4-26.4,48.4-42.2C488.9,579.3,323.4,491.3,189.2,419.9z"/>
		<linearGradient id="SVGID_2_" gradientUnits="userSpaceOnUse" x1="148.3132" y1="548.2902" x2="506.7102" y2="548.2902">
			<stop  offset="0" style="stop-color:#FFFFFF;stop-opacity:0.4"/>
			<stop  offset="1" style="stop-color:#FFFFFF;stop-opacity:0"/>
		</linearGradient>
		<path class="st3" d="M467.5,691.2c-48.7-78.9-176.4-151.9-303.9-220.1c-6.1-19.2-11.2-41.3-15.3-65.8
			c12.1,6.5,24.7,13.2,37.9,20.2c130.3,69.3,291.9,155.2,320.5,231.3C494.2,668.4,481,680,467.5,691.2z"/>
		<path class="st4" d="M349.9,259.3c-115-61.1-188.6-101.7-214.1-140.5c-1,11.2-3.8,45-4.8,89.7c4.1,2.9,8.5,5.9,13.5,9.1
			c37.9,24.7,90.6,52.7,146.3,82.3c131.2,69.8,277,147.4,330.7,232c2.1-3.5,4.2-7.1,6.3-10.7c10.1-17.9,18.1-39.2,24.5-62.3
			C596.6,390.6,462.3,319.1,349.9,259.3z"/>
		<linearGradient id="SVGID_3_" gradientUnits="userSpaceOnUse" x1="137.4156" y1="327.7429" x2="645.0784" y2="327.7429">
			<stop  offset="0" style="stop-color:#FFFFFF;stop-opacity:0.4"/>
			<stop  offset="1" style="stop-color:#FFFFFF;stop-opacity:0"/>
		</linearGradient>
		<path class="st5" d="M621,519.8c-58.7-82.8-201.2-158.5-327.4-225.6c-55.6-29.6-108.1-57.5-145.8-82c-3.8-2.5-7.2-4.8-10.5-7
			c0.8-29.2,2.2-53.4,3.4-69.5c32.7,36.1,102,74,206,129.3c108,57.4,242.1,128.8,298.2,195.4c-6.4,22.5-14.2,41.9-23,57.7
			C621.7,518.6,621.4,519.2,621,519.8z"/>
		<path class="st6" d="M269.5,339.6c-56.6-30.1-103.2-55.2-139-77.6c0.3,24.7,1.3,50.8,3.4,77.1c23.9,13.2,49.8,27,76.4,41.1
			C348.1,453.5,502,535.3,548.4,624.8c15.4-16.2,30.5-33.4,44.3-51.5C562.3,495.3,400.9,409.5,269.5,339.6z"/>
		<linearGradient id="SVGID_4_" gradientUnits="userSpaceOnUse" x1="137.1917" y1="443.816" x2="585.4009" y2="443.816">
			<stop  offset="0" style="stop-color:#FFFFFF;stop-opacity:0.4"/>
			<stop  offset="1" style="stop-color:#FFFFFF;stop-opacity:0"/>
		</linearGradient>
		<path class="st7" d="M549.8,614c-52-88.2-202.9-168.5-336.4-239.5c-23.2-12.4-49.4-26.3-73.3-39.4c-1.5-19.5-2.4-40.1-2.9-61.5
			c35.3,21.4,79.7,45.3,129.3,71.7c127.6,67.9,285.9,152.1,318.9,227.1C574.7,586.1,562.7,600.1,549.8,614z"/>
		<path class="st8" d="M192.6,545.3c74.8,113.3,210.1,203.2,210.1,203.2h0h0c0,0,10.5-7,27.2-19.5
			C402.2,668.4,298.4,603.6,192.6,545.3z"/>
		<linearGradient id="SVGID_5_" gradientUnits="userSpaceOnUse" x1="214.0963" y1="652.6572" x2="421.8199" y2="652.6572">
			<stop  offset="0" style="stop-color:#FFFFFF;stop-opacity:0.4"/>
			<stop  offset="1" style="stop-color:#FFFFFF;stop-opacity:0"/>
		</linearGradient>
		<path class="st9" d="M402.7,740.7c-20.1-13.8-120.7-85.5-188.6-176.1c86,48.5,179.1,107.8,207.7,162.4
			C413.2,733.4,406.5,738.1,402.7,740.7z"/>
		<path class="st10" d="M451.3,139.3c76.6,40.7,158.2,84.1,223.5,130c1.5-85.1-5.4-154.5-5.4-154.5
			c-59.1,24.2-210.8,24.1-266.6-89.9h0h0c-12.6,25.7-30.1,45.5-50.2,60.7C382.3,102.6,416.2,120.6,451.3,139.3z"/>
		<linearGradient id="SVGID_6_" gradientUnits="userSpaceOnUse" x1="363.9646" y1="147.8291" x2="668.5724" y2="147.8291">
			<stop  offset="0" style="stop-color:#FFFFFF;stop-opacity:0.4"/>
			<stop  offset="1" style="stop-color:#FFFFFF;stop-opacity:0"/>
		</linearGradient>
		<path class="st11" d="M668.5,257.1c-63.9-43.6-140.3-84.2-214.2-123.5c-30.7-16.3-62.4-33.2-90.4-48.9
			c15.6-13.1,28.6-28.6,38.8-46.2c35,60.1,104.6,95.5,189.1,95.5c26.4,0,52-3.7,71.9-10.3C665.3,143.3,669.1,195.4,668.5,257.1z"/>
		<linearGradient id="SVGID_7_" gradientUnits="userSpaceOnUse" x1="230.7327" y1="231.3918" x2="666.0079" y2="231.3918">
			<stop  offset="0" style="stop-color:#FFFFFF;stop-opacity:0.4"/>
			<stop  offset="1" style="stop-color:#FFFFFF;stop-opacity:0"/>
		</linearGradient>
		<path class="st12" d="M306.1,137.7c34.3,20.4,76.8,43.2,121.1,66.7c80.6,42.9,171.7,91.3,237.4,140.4c0.5-6.1,1-12.4,1.4-18.7
			c-65.8-49.5-157.7-98.3-238.8-141.5c-44.2-23.5-86.8-46.3-121.1-66.7c-23.1,8.7-48.9,14-75.4,15.6c8.4,5.4,17.5,10.9,27.1,16.6
			C274.7,147.4,291,143.4,306.1,137.7z"/>
		<linearGradient id="SVGID_8_" gradientUnits="userSpaceOnUse" x1="148.3132" y1="534.0803" x2="506.7102" y2="534.0803">
			<stop  offset="0" style="stop-color:#FFFFFF;stop-opacity:0.4"/>
			<stop  offset="1" style="stop-color:#FFFFFF;stop-opacity:0"/>
		</linearGradient>
		<path class="st13" d="M186.2,445.4c122.4,65.1,272.6,145,313.9,217.5c2.2-2,4.4-4,6.6-5.9c-28.6-76.1-190.2-162-320.5-231.3
			c-13.2-7-25.8-13.7-37.9-20.2c1.3,7.6,2.7,14.9,4.1,22C163.3,433.1,174.5,439.1,186.2,445.4z"/>
		<linearGradient id="SVGID_9_" gradientUnits="userSpaceOnUse" x1="137.4156" y1="305.3072" x2="645.0784" y2="305.3072">
			<stop  offset="0" style="stop-color:#FFFFFF;stop-opacity:0.4"/>
			<stop  offset="1" style="stop-color:#FFFFFF;stop-opacity:0"/>
		</linearGradient>
		<path class="st14" d="M140.8,155.4c32.7,36.1,102,74,206,129.3c105.2,56,235.2,125.1,293.7,190.2c1.6-4.7,3.1-9.6,4.5-14.6
			C589,393.7,454.9,322.4,346.9,265c-104-55.3-173.3-93.2-206-129.3c-1.2,16.1-2.6,40.3-3.4,69.5c0.2,0.1,0.4,0.3,0.6,0.4
			C138.8,185,139.9,167.8,140.8,155.4z"/>
		<linearGradient id="SVGID_10_" gradientUnits="userSpaceOnUse" x1="137.1917" y1="426.9252" x2="585.4009" y2="426.9252">
			<stop  offset="0" style="stop-color:#FFFFFF;stop-opacity:0.4"/>
			<stop  offset="1" style="stop-color:#FFFFFF;stop-opacity:0"/>
		</linearGradient>
		<path class="st15" d="M266.5,365c120.9,64.3,269.3,143.3,312.6,215.2c2.1-2.6,4.2-5.2,6.3-7.9c-32.9-75-191.3-159.2-318.9-227.1
			c-49.7-26.4-94-50.2-129.3-71.7c0.1,6.8,0.4,13.5,0.6,20.1C173,315.1,217.1,338.8,266.5,365z"/>
		<linearGradient id="SVGID_11_" gradientUnits="userSpaceOnUse" x1="214.0963" y1="648.8907" x2="421.8199" y2="648.8907">
			<stop  offset="0" style="stop-color:#FFFFFF;stop-opacity:0.4"/>
			<stop  offset="1" style="stop-color:#FFFFFF;stop-opacity:0"/>
		</linearGradient>
		<path class="st16" d="M413.4,733.2c2.6-1.8,5.3-3.8,8.4-6.1c-28.6-54.6-121.7-113.9-207.7-162.4c9.7,12.9,20,25.4,30.7,37.4
			C314.1,642.6,382.4,689,413.4,733.2z"/>
		<linearGradient id="SVGID_12_" gradientUnits="userSpaceOnUse" x1="363.9646" y1="146.3459" x2="668.5606" y2="146.3459">
			<stop  offset="0" style="stop-color:#FFFFFF;stop-opacity:0.4"/>
			<stop  offset="1" style="stop-color:#FFFFFF;stop-opacity:0"/>
		</linearGradient>
		<path class="st17" d="M402.7,58.3c35,60.1,104.6,95.5,189.1,95.5c26.4,0,52-3.7,71.9-10.3c1.4,17.1,4.5,59.1,4.8,110.7
			c0.4-60.4-3.2-111.2-4.8-130.5c-19.8,6.6-45.5,10.3-71.9,10.3c-84.4,0-154.1-35.5-189.1-95.5c-10.2,17.6-23.2,33.1-38.8,46.2
			c4.3,2.4,8.8,4.9,13.2,7.3C387,81.9,395.6,70.6,402.7,58.3z"/>
	</g>
	<g>
	</g>
	<g>
	</g>
	<g>
	</g>
	<g>
	</g>
	<g>
	</g>
	<g>
	</g>
</g>
</svg>
